<?xml version="1.0" encoding="UTF-8" standalone="no"?>
<!-- Created with Inkscape (http://www.inkscape.org/) -->

<svg
   xmlns:dc="http://purl.org/dc/elements/1.1/"
   xmlns:cc="http://creativecommons.org/ns#"
   xmlns:rdf="http://www.w3.org/1999/02/22-rdf-syntax-ns#"
   xmlns:svg="http://www.w3.org/2000/svg"
   xmlns="http://www.w3.org/2000/svg"
   xmlns:sodipodi="http://sodipodi.sourceforge.net/DTD/sodipodi-0.dtd"
   xmlns:inkscape="http://www.inkscape.org/namespaces/inkscape"
   width="150"
   height="150"
   id="svg9777"
   version="1.1"
   inkscape:version="0.48.4 r9939"
   sodipodi:docname="contact.svg">
  <defs
     id="defs9779" />
  <sodipodi:namedview
     id="base"
     pagecolor="#ffffff"
     bordercolor="#666666"
     borderopacity="1.0"
     inkscape:pageopacity="0.0"
     inkscape:pageshadow="2"
     inkscape:zoom="1.3470384"
     inkscape:cx="1.012053"
     inkscape:cy="66.739063"
     inkscape:current-layer="layer1"
     showgrid="true"
     inkscape:document-units="px"
     inkscape:grid-bbox="true"
     inkscape:window-width="1280"
     inkscape:window-height="748"
     inkscape:window-x="0"
     inkscape:window-y="0"
     inkscape:window-maximized="1" />
  <metadata
     id="metadata9782">
    <rdf:RDF>
      <cc:Work
         rdf:about="">
        <dc:format>image/svg+xml</dc:format>
        <dc:type
           rdf:resource="http://purl.org/dc/dcmitype/StillImage" />
        <dc:title />
      </cc:Work>
    </rdf:RDF>
  </metadata>
  <g
     id="layer1"
     inkscape:label="Layer 1"
     inkscape:groupmode="layer"
     transform="translate(0,86)">
    <g
       id="g3007"
       transform="matrix(4.5578907,0,0,4.5578907,2.0530517,-83.442773)">
      <path
         id="path2987"
         d="M 32,12.087 C 31.855,11.666 31.627,11.269 31.291,10.933 L 18.125,0.948 c -1.717,-1.265 -2.592,-1.265 -4.28,0 L 0.736,10.933 C 0.4,11.269 0.171,11.666 0.026,12.087 l 15.959,14 16.015,-14 z"
         inkscape:connector-curvature="0"
         style="fill:#d07c40" />
      <path
         id="path2989"
         d="M 4,3.088 H 28 V 23.087 H 4 V 3.088 z"
         inkscape:connector-curvature="0"
         style="fill:#e4e7e7" />
      <path
         id="path2991"
         d="m 1.648,30.751 14.333,-11.165 14.37,11.166 c 0.531,-0.271 0.967,-0.691 1.258,-1.211 L 18.125,18.95 c -1.702,-1.256 -2.597,-1.276 -4.28,0 L 0.382,29.524 c 0.29,0.526 0.728,0.953 1.266,1.227 z"
         inkscape:connector-curvature="0"
         style="fill:#e8ab54" />
      <path
         id="path2993"
         d="m 8,8.088 v 2 h 16 v -2 H 8 z m 0,5.999 H 24 V 12.088 H 8 v 1.999 z"
         inkscape:connector-curvature="0"
         style="fill:#c2c5c5" />
      <path
         id="path2995"
         d="m 16,24.087 16,-12 v 17 c 0,1.657 -1.343,3 -3,3 H 3 c -1.657,0 -3,-1.343 -3,-3 v -17 l 16,12 z"
         inkscape:connector-curvature="0"
         style="fill:#e8ab54" />
      <path
         id="path2997"
         d="m 29.32,32.054 c 0.648,-0.069 1.234,-0.34 1.691,-0.756 L 15.981,19.585 0.986,31.298 c 0.458,0.417 1.043,0.687 1.693,0.757 L 29.32,32.054 z"
         inkscape:connector-curvature="0"
         style="fill:#f4b459" />
      <path
         id="path2999"
         d="m 0.382,30.524 c 0.29,0.526 0.729,0.953 1.266,1.228 l 14.333,-11.164 14.37,11.165 c 0.531,-0.271 0.967,-0.691 1.258,-1.211 L 18.125,19.948 c -1.889,-1.399 -2.347,-1.463 -4.28,0 L 0.382,30.524 z"
         inkscape:connector-curvature="0"
         style="fill:#f9d7a7" />
    </g>
  </g>
</svg>
