<?xml version="1.0" encoding="UTF-8" standalone="no"?>
<!-- Created with Inkscape (http://www.inkscape.org/) -->

<svg
   xmlns:dc="http://purl.org/dc/elements/1.1/"
   xmlns:cc="http://creativecommons.org/ns#"
   xmlns:rdf="http://www.w3.org/1999/02/22-rdf-syntax-ns#"
   xmlns:svg="http://www.w3.org/2000/svg"
   xmlns="http://www.w3.org/2000/svg"
   xmlns:sodipodi="http://sodipodi.sourceforge.net/DTD/sodipodi-0.dtd"
   xmlns:inkscape="http://www.inkscape.org/namespaces/inkscape"
   width="150"
   height="150"
   id="svg16177"
   version="1.1"
   inkscape:version="0.48.4 r9939"
   sodipodi:docname="fusee.svg">
  <defs
     id="defs16179" />
  <sodipodi:namedview
     id="base"
     pagecolor="#ffffff"
     bordercolor="#666666"
     borderopacity="1.0"
     inkscape:pageopacity="0.0"
     inkscape:pageshadow="2"
     inkscape:zoom="1.979899"
     inkscape:cx="141.30904"
     inkscape:cy="97.992503"
     inkscape:document-units="px"
     inkscape:current-layer="layer1"
     showgrid="false"
     inkscape:window-width="1280"
     inkscape:window-height="748"
     inkscape:window-x="0"
     inkscape:window-y="0"
     inkscape:window-maximized="1" />
  <metadata
     id="metadata16182">
    <rdf:RDF>
      <cc:Work
         rdf:about="">
        <dc:format>image/svg+xml</dc:format>
        <dc:type
           rdf:resource="http://purl.org/dc/dcmitype/StillImage" />
        <dc:title></dc:title>
      </cc:Work>
    </rdf:RDF>
  </metadata>
  <g
     inkscape:label="Layer 1"
     inkscape:groupmode="layer"
     id="layer1"
     transform="translate(0,-902.36218)">
    <path
       style="fill:#334d5c;fill-opacity:1"
       inkscape:connector-curvature="0"
       d="m 74.935012,904.15711 c 40.696658,0 73.688458,32.9918 73.688458,73.68846 0,40.69663 -32.9918,73.68843 -73.688458,73.68843 -40.696673,0 -73.6884712,-32.9918 -73.6884712,-73.68843 0,-40.69666 32.9917982,-73.68846 73.6884712,-73.68846 z"
       id="path3288-9" />
    <path
       d="m 122.9006,1000.0515 1.52251,-3.68081 -0.33163,3.96921 3.68092,1.5225 -3.96921,-0.3316 -1.52242,3.6801 0.33145,-3.9684 -3.68091,-1.52255 3.96929,0.33155"
       style="fill:#ffffff;fill-opacity:1;fill-rule:nonzero;stroke:none"
       id="path752"
       inkscape:connector-curvature="0" />
    <path
       d="m 81.894745,930.44773 0.474024,-2.87562 0.42243,2.88347 2.875636,0.47403 -2.883434,0.42243 -0.474079,2.87513 -0.42243,-2.88293 -2.875636,-0.47408 2.883489,-0.42243"
       style="fill:#ffffff;fill-opacity:1;fill-rule:nonzero;stroke:none"
       id="path752-5"
       inkscape:connector-curvature="0" />
    <path
       d="m 14.445239,963.5591 0.64789,-3.93033 0.57736,3.94104 3.930325,0.6479 -3.940985,0.57737 -0.647953,3.92963 -0.577361,-3.94031 -3.930326,-0.64795 3.94105,-0.57735"
       style="fill:#ffffff;fill-opacity:1;fill-rule:nonzero;stroke:none"
       id="path752-51"
       inkscape:connector-curvature="0" />
    <path
       d="m 62.10146,955.87474 -2.792496,-0.0595 c -9.304006,-0.19351 -18.285651,3.41426 -24.876463,9.97393 l 0,0 c -6.208987,6.18974 -10.681226,13.90715 -12.961535,22.36476 l -2.556932,9.47984 c -0.294968,1.09172 0.877041,2.00377 1.866288,1.45864 l 26.921417,-15.05113 14.399721,-28.1665"
       style="fill:#a72e2e;fill-opacity:1;fill-rule:nonzero;stroke:none"
       id="path202"
       inkscape:connector-curvature="0" />
    <path
       d="m 97.663688,983.13784 0.780572,2.68244 c 2.60178,8.92727 1.453524,18.54222 -3.176191,26.60982 l 0,0 c -4.362596,7.6103 -10.64763,13.9277 -18.223733,18.3233 l -8.490564,4.9303 c -0.982208,0.5687 -2.167858,-0.3259 -1.890685,-1.4229 l 7.53726,-29.9034 23.463341,-21.21956"
       style="fill:#a72e2e;fill-opacity:1;fill-rule:nonzero;stroke:none"
       id="path204"
       inkscape:connector-curvature="0" />
    <path
       d="m 47.69976,984.04066 c 22.624865,-60.33181 62.18134,-71.39374 74.11228,-73.3748 1.97503,-0.33055 3.80655,1.0751 4.00226,3.07154 1.17944,12.03406 0.77205,53.1051 -51.610999,90.6208 L 47.69976,984.04066"
       style="fill:#d7524b;fill-opacity:1;fill-rule:nonzero;stroke:none"
       id="path206"
       inkscape:connector-curvature="0" />
    <path
       d="m 121.77666,910.67688 c -4.36912,0.72013 -12.41721,2.67385 -21.971017,7.78483 l 24.195367,18.54702 c 2.45328,-10.54943 2.24374,-18.82768 1.81544,-23.23856 -0.19582,-2.01795 -2.04023,-3.43805 -4.03979,-3.09329"
       style="fill:#a72e2e;fill-opacity:1;fill-rule:nonzero;stroke:none"
       id="path208"
       inkscape:connector-curvature="0" />
    <path
       d="m 109.37718,952.69333 c -4.27691,5.57867 -12.270132,6.63786 -17.849776,2.3532 -5.581527,-4.27456 -6.638066,-12.26592 -2.358243,-17.85449 4.278909,-5.57815 12.272129,-6.63735 17.850749,-2.3529 5.58253,4.27484 6.63808,12.26591 2.35727,17.85419"
       style="fill:#3f4143;fill-opacity:1;fill-rule:nonzero;stroke:none"
       id="path210"
       inkscape:connector-curvature="0" />
    <path
       d="m 106.61903,950.57631 c -3.11022,4.05732 -8.920445,4.82563 -12.978049,1.71637 -4.05761,-3.10921 -4.822892,-8.92605 -1.712668,-12.98337 3.110227,-4.05734 8.921437,-4.82535 12.978047,-1.71638 4.05761,3.10927 4.82291,8.92605 1.71267,12.98338"
       style="fill:#99b2a0;fill-opacity:1;fill-rule:nonzero;stroke:none"
       id="path212"
       inkscape:connector-curvature="0" />
    <path
       d="m 74.203301,1004.3582 c 2.010922,-1.4449 3.942052,-2.8916 5.79842,-4.3283 L 50.376079,977.317 c -0.915803,2.17356 -1.808603,4.40744 -2.676319,6.72366 l 26.503541,20.31754"
       style="fill:#3f4143;fill-opacity:1;fill-rule:nonzero;stroke:none"
       id="path214"
       inkscape:connector-curvature="0" />
    <path
       inkscape:connector-curvature="0"
       style="fill:#cf8c2c;fill-opacity:1;fill-rule:nonzero;stroke:none"
       d="m 49.584581,985.49492 c 0,0 -11.849661,3.59744 -19.877198,18.75528 -4.174813,7.8853 -5.750323,18.1701 -6.328485,26.2345 3.678494,3.5706 7.723982,6.7465 12.081654,9.4927 7.672147,-2.6477 17.284332,-6.8678 23.87565,-13.0021 12.557795,-11.6956 12.973396,-24.0771 12.973396,-24.0771 L 49.584581,985.49492 z"
       id="path216" />
    <path
       d="m 33.623003,1029.8495 c 0,0 17.107711,-3.4923 26.202909,-11.9626 9.095207,-8.4702 9.387781,-17.4258 9.387781,-17.4258 L 52.761674,987.84123 c 0,0 -8.577879,2.61227 -14.39085,13.58907 -5.815862,10.9866 -4.747821,28.4192 -4.747821,28.4192"
       style="fill:#deae2a;fill-opacity:1;fill-rule:nonzero;stroke:none"
       id="path218"
       inkscape:connector-curvature="0" />
    <path
       d="m 45.258244,1018.8258 -4.016069,-3.0755 c -0.455891,-0.3482 -0.54043,-1.0051 -0.190604,-1.4594 l 35.642033,-46.49253 c 0.35271,-0.46413 1.002054,-0.54124 1.45696,-0.19339 l 4.017056,3.07587 c 0.455899,0.34815 0.539462,1.00471 0.191594,1.45966 l -35.643991,46.49179 c -0.348836,0.4546 -1.001088,0.5417 -1.456979,0.1935"
       style="fill:#a72e2e;fill-opacity:1;fill-rule:nonzero;stroke:none"
       id="path220"
       inkscape:connector-curvature="0" />
    <path
       d="m 135.2522,964.2823 0.23066,-1.39927 0.20555,1.40308 1.39926,0.23067 -1.40306,0.20555 -0.23069,1.39901 -0.20554,-1.40281 -1.39927,-0.23068 1.40309,-0.20555"
       style="fill:#ffffff;fill-opacity:1;fill-rule:nonzero;stroke:none"
       id="path752-51-8"
       inkscape:connector-curvature="0" />
    <path
       d="m 49.00839,930.76112 0.23066,-1.39926 0.205549,1.40307 1.399264,0.23066 -1.403056,0.20555 -0.230688,1.39902 -0.205549,-1.40282 -1.399263,-0.23067 1.403083,-0.20555"
       style="fill:#ffffff;fill-opacity:1;fill-rule:nonzero;stroke:none"
       id="path752-51-8-2"
       inkscape:connector-curvature="0" />
    <path
       d="m 87.339304,1038.0198 0.230661,-1.3993 0.205549,1.4031 1.399262,0.2306 -1.403055,0.2056 -0.230688,1.399 -0.20555,-1.4027 -1.399262,-0.2307 1.403083,-0.2056"
       style="fill:#ffffff;fill-opacity:1;fill-rule:nonzero;stroke:none"
       id="path752-51-8-2-9"
       inkscape:connector-curvature="0" />
  </g>
</svg>
