<?xml version="1.0" encoding="UTF-8" standalone="no"?>
<!-- Created with Inkscape (http://www.inkscape.org/) -->

<svg
   xmlns:dc="http://purl.org/dc/elements/1.1/"
   xmlns:cc="http://creativecommons.org/ns#"
   xmlns:rdf="http://www.w3.org/1999/02/22-rdf-syntax-ns#"
   xmlns:svg="http://www.w3.org/2000/svg"
   xmlns="http://www.w3.org/2000/svg"
   xmlns:sodipodi="http://sodipodi.sourceforge.net/DTD/sodipodi-0.dtd"
   xmlns:inkscape="http://www.inkscape.org/namespaces/inkscape"
   width="1024px"
   height="768px"
   id="svg4434"
   version="1.1"
   inkscape:version="0.48.4 r9939"
   sodipodi:docname="New document 6">
  <defs
     id="defs4436" />
  <sodipodi:namedview
     id="base"
     pagecolor="#ffffff"
     bordercolor="#666666"
     borderopacity="1.0"
     inkscape:pageopacity="0.0"
     inkscape:pageshadow="2"
     inkscape:zoom="0.5"
     inkscape:cx="512"
     inkscape:cy="382"
     inkscape:current-layer="layer1"
     inkscape:document-units="px"
     showgrid="false"
     inkscape:window-width="1280"
     inkscape:window-height="748"
     inkscape:window-x="0"
     inkscape:window-y="0"
     inkscape:window-maximized="1" />
  <metadata
     id="metadata4439">
    <rdf:RDF>
      <cc:Work
         rdf:about="">
        <dc:format>image/svg+xml</dc:format>
        <dc:type
           rdf:resource="http://purl.org/dc/dcmitype/StillImage" />
        <dc:title></dc:title>
      </cc:Work>
    </rdf:RDF>
  </metadata>
  <g
     id="layer1"
     inkscape:label="Layer 1"
     inkscape:groupmode="layer">
    <g
       id="g14373"
       transform="matrix(1.0459497,0,0,1.0459497,-2242.2621,2418.9762)">
      <path
         d="m 3066.1259,-1835.3736 1.1362,-6.8925 1.0125,6.9113 6.8925,1.1362 -6.9112,1.0125 -1.1363,6.8913 -1.0125,-6.91 -6.8925,-1.1363 6.9113,-1.0125"
         style="fill:#ffffff;fill-opacity:1;fill-rule:nonzero;stroke:none"
         id="path752"
         inkscape:connector-curvature="0" />
      <path
         d="m 2766.1259,-1995.3736 1.1362,-6.8925 1.0125,6.9113 6.8925,1.1362 -6.9112,1.0125 -1.1363,6.8913 -1.0125,-6.91 -6.8925,-1.1363 6.9113,-1.0125"
         style="fill:#ffffff;fill-opacity:1;fill-rule:nonzero;stroke:none"
         id="path754"
         inkscape:connector-curvature="0" />
      <path
         d="m 3073.6259,-1591.6248 1.1362,-6.8913 1.0125,6.9113 6.8925,1.1349 -6.9112,1.0138 -1.1363,6.8913 -1.0125,-6.9113 -6.8925,-1.135 6.9113,-1.0137"
         style="fill:#ffffff;fill-opacity:1;fill-rule:nonzero;stroke:none"
         id="path756"
         inkscape:connector-curvature="0" />
      <path
         d="m 2627.3759,-2055.3748 1.1362,-6.8913 1.0125,6.9113 6.8925,1.1349 -6.9112,1.0138 -1.1363,6.8913 -1.0125,-6.9113 -6.8925,-1.135 6.9113,-1.0137"
         style="fill:#ffffff;fill-opacity:1;fill-rule:nonzero;stroke:none"
         id="path758"
         inkscape:connector-curvature="0" />
      <path
         d="m 2486.1259,-2297.8748 1.1362,-6.8913 1.0125,6.9113 6.8925,1.1349 -6.9112,1.0138 -1.1363,6.8913 -1.0125,-6.9113 -6.8925,-1.135 6.9113,-1.0137"
         style="fill:#ffffff;fill-opacity:1;fill-rule:nonzero;stroke:none"
         id="path760"
         inkscape:connector-curvature="0" />
      <path
         d="m 2542.3759,-1836.6248 1.1362,-6.8913 1.0125,6.9113 6.8925,1.1349 -6.9112,1.0138 -1.1363,6.8913 -1.0125,-6.9113 -6.8925,-1.135 6.9113,-1.0137"
         style="fill:#ffffff;fill-opacity:1;fill-rule:nonzero;stroke:none"
         id="path762"
         inkscape:connector-curvature="0" />
      <path
         d="m 2184.8764,-2111.6248 1.1352,-6.8913 1.0133,6.9113 6.8921,1.1349 -6.9116,1.0138 -1.1353,6.8913 -1.0132,-6.9113 -6.8921,-1.135 6.9116,-1.0137"
         style="fill:#ffffff;fill-opacity:1;fill-rule:nonzero;stroke:none"
         id="path764"
         inkscape:connector-curvature="0" />
      <path
         d="m 2364.8759,-2085.3748 1.1362,-6.8913 1.0125,6.9113 6.8925,1.1349 -6.9112,1.0138 -1.1363,6.8913 -1.0125,-6.9113 -6.8925,-1.135 6.9113,-1.0137"
         style="fill:#ffffff;fill-opacity:1;fill-rule:nonzero;stroke:none"
         id="path766"
         inkscape:connector-curvature="0" />
      <path
         d="m 2332.8159,-1971.9686 c 0,2.0713 -1.6788,3.75 -3.75,3.75 -2.0713,0 -3.75,-1.6787 -3.75,-3.75 0,-2.0712 1.6787,-3.75 3.75,-3.75 2.0712,0 3.75,1.6788 3.75,3.75"
         style="fill:#3d788f;fill-opacity:1;fill-rule:nonzero;stroke:none"
         id="path768"
         inkscape:connector-curvature="0" />
      <path
         d="m 2992.8159,-1839.4686 c 0,2.0713 -1.68,3.75 -3.75,3.75 -2.07,0 -3.75,-1.6787 -3.75,-3.75 0,-2.0712 1.68,-3.75 3.75,-3.75 2.07,0 3.75,1.6788 3.75,3.75"
         style="fill:#3d788f;fill-opacity:1;fill-rule:nonzero;stroke:none"
         id="path770"
         inkscape:connector-curvature="0" />
      <path
         d="m 2775.3159,-2054.4686 c 0,2.0713 -1.68,3.75 -3.75,3.75 -2.07,0 -3.75,-1.6787 -3.75,-3.75 0,-2.0712 1.68,-3.75 3.75,-3.75 2.07,0 3.75,1.6788 3.75,3.75"
         style="fill:#3d788f;fill-opacity:1;fill-rule:nonzero;stroke:none"
         id="path772"
         inkscape:connector-curvature="0" />
      <path
         d="m 2869.0659,-2221.9686 c 0,2.0713 -1.68,3.75 -3.75,3.75 -2.07,0 -3.75,-1.6787 -3.75,-3.75 0,-2.0712 1.68,-3.75 3.75,-3.75 2.07,0 3.75,1.6788 3.75,3.75"
         style="fill:#3d788f;fill-opacity:1;fill-rule:nonzero;stroke:none"
         id="path774"
         inkscape:connector-curvature="0" />
      <path
         d="m 2546.5659,-2003.2186 c 0,2.0713 -1.68,3.75 -3.75,3.75 -2.07,0 -3.75,-1.6787 -3.75,-3.75 0,-2.0712 1.68,-3.75 3.75,-3.75 2.07,0 3.75,1.6788 3.75,3.75"
         style="fill:#3d788f;fill-opacity:1;fill-rule:nonzero;stroke:none"
         id="path776"
         inkscape:connector-curvature="0" />
      <path
         d="m 2835.3159,-1740.7186 c 0,2.07 -1.68,3.75 -3.75,3.75 -2.07,0 -3.75,-1.68 -3.75,-3.75 0,-2.07 1.68,-3.75 3.75,-3.75 2.07,0 3.75,1.68 3.75,3.75"
         style="fill:#3d788f;fill-opacity:1;fill-rule:nonzero;stroke:none"
         id="path778"
         inkscape:connector-curvature="0" />
    </g>
  </g>
</svg>
