<svg xmlns="http://www.w3.org/2000/svg" width="1024" height="768"><path d="M964.75 499.268l1.19-7.21 1.06 7.23 7.208 1.188-7.23 1.06-1.187 7.207-1.057-7.228-7.21-1.188 7.23-1.06m-313.787-167.35l1.19-7.21 1.058 7.23 7.21 1.187-7.23 1.06-1.188 7.207-1.06-7.226-7.208-1.188 7.228-1.06m321.63 422.3l1.188-7.207 1.06 7.227 7.21 1.187-7.23 1.06-1.19 7.208-1.058-7.23-7.21-1.186 7.23-1.06M505.84 269.158l1.19-7.208 1.058 7.228 7.21 1.188-7.23 1.06-1.188 7.208-1.06-7.23-7.208-1.186 7.23-1.06M358.1 15.515l1.19-7.208 1.058 7.23 7.21 1.186-7.23 1.06-1.188 7.208-1.06-7.227-7.208-1.187 7.23-1.06m58.833 482.444l1.19-7.21 1.058 7.23 7.21 1.187-7.23 1.06-1.188 7.208-1.06-7.23-7.21-1.186 7.23-1.06M43.01 210.322l1.186-7.208 1.06 7.23 7.21 1.186-7.23 1.06-1.188 7.21-1.06-7.23-7.208-1.186 7.23-1.06m188.27 27.456l1.188-7.21 1.06 7.23 7.208 1.187-7.23 1.06-1.188 7.208-1.06-7.23-7.208-1.186 7.23-1.06" fill="#fff"/><path d="M197.746 356.396c0 2.167-1.756 3.923-3.922 3.923-2.167 0-3.923-1.758-3.923-3.925 0-2.166 1.758-3.922 3.925-3.922 2.166 0 3.922 1.756 3.922 3.922m690.326 138.59c0 2.166-1.757 3.922-3.923 3.922-2.165 0-3.922-1.756-3.922-3.922 0-2.167 1.757-3.923 3.922-3.923 2.166 0 3.923 1.756 3.923 3.923M660.58 270.105c0 2.167-1.758 3.923-3.924 3.923-2.165 0-3.922-1.756-3.922-3.923 0-2.166 1.757-3.922 3.922-3.922 2.166 0 3.923 1.756 3.923 3.922M758.636 94.91c0 2.165-1.758 3.92-3.923 3.92s-3.922-1.755-3.922-3.92c0-2.168 1.757-3.924 3.922-3.924s3.923 1.756 3.923 3.923m-337.32 228.8c0 2.167-1.756 3.923-3.922 3.923-2.165 0-3.922-1.756-3.922-3.923 0-2.166 1.757-3.922 3.922-3.922 2.166 0 3.923 1.756 3.923 3.922m302.018 274.562c0 2.165-1.757 3.922-3.923 3.922-2.165 0-3.922-1.757-3.922-3.922s1.76-3.922 3.924-3.922c2.166 0 3.923 1.757 3.923 3.922" fill="#3d788f"/></svg>