<svg xmlns="http://www.w3.org/2000/svg" width="250.36" height="75.1"><path d="M196.994 38.29l8.843-.003c0-6.344-4.116-11.11-11.36-11.11-10.83 0-12.848 7.92-12.848 13.58 0 3.33 1.38 14.572 15.02 14.572 2.368 0 5.1-.234 8.46-1.16v-4.726c-5.343 2.325-13.265 2.426-14.276-6.372-.844-7.353.525-12.03 3.1-12.03 2.234 0 3.06 3.254 3.06 7.247M222.42 37.08c-.046-3.02-.632-6.037-2.828-6.037-2.075 0-2.84 2.402-3.16 6.038h5.99zm9.33 1.398v2.78h-15.43c.543 10.86 8.68 10.528 14.397 8.185v4.726c-3.358.926-5.683 1.157-8.262 1.157-13.255 0-15.227-9.872-15.227-14.883 0-5.8 2.535-13.28 12.687-13.27 7.483.003 11.835 4.737 11.835 11.304M137.608 50.503l1.507.004v-9.96c-2.187.196-5.316 1.165-5.32 5.498 0 4.06 1.928 4.38 3.813 4.458M148.358 37v17.504l-14.58-.002c-5.365-.007-9.3-2.204-9.288-8.216.02-9.76 11.336-9.405 14.625-9.413v-.68c.005-5.946-5.898-5.37-9.428-4.342-.753.23-1.425.478-1.972.72l.005-4.396c3.147-.747 5.266-1 8.58-1 7.772 0 12.06 3.663 12.06 9.825M124.63 27.173h-1.97c-7.65.002-12.634 4.07-12.64 9.504v17.827h9.245V36.96c.007-4.92 3.294-5.56 5.365-5.624v-4.163M108.23 17.053c-8.065 0-14.888 1.14-14.888 11.01v26.44h9.243v-22.28h6.32v-4.148h-6.32v-2.073c.006-4.92 3.904-4.85 7.615-4.85l-.003-4.1h-1.967M153.434 28.075v26.43h9.243v-22.28h.496c3.21.015 5.49.297 5.49 6.39v15.89h9.242v-15.38c0-4.93-.022-11.048-13.096-11.048l-11.376-.002M88.343 64.075c0 2.78-2.253 5.037-5.037 5.037-2.78 0-5.037-2.256-5.037-5.037 0-2.78 2.255-5.04 5.036-5.04 2.784 0 5.037 2.26 5.037 5.04" fill="#ffd500"/><path d="M78.685 54.504h9.245v-26.43h-9.245v26.43zM32.436 50.59c3.814 0 5.138-3.622 5.138-9.613 0-5.717-1.324-9.058-5.267-9.058l-.577-.003V50.59h.706zm2.794 3.914h-12.8v-37.45h9.3v11.02h2.69c12.553 0 12.546 9.82 12.546 12.964 0 4.144-1.313 13.466-11.736 13.466M60.566 31.922l-.708-.005V50.59h.577c3.944 0 5.272-3.342 5.272-9.055 0-5.993-1.328-9.613-5.14-9.613m2.79-3.847c10.426 0 11.737 9.323 11.737 13.464 0 3.144.006 12.964-12.545 12.964h-2.692v11.022H50.56v-37.45H63.36M88.343 18.507c0 2.778-2.253 5.034-5.037 5.034-2.78 0-5.037-2.255-5.037-5.033 0-2.782 2.255-5.04 5.036-5.04 2.784 0 5.037 2.258 5.037 5.04" fill="#7d6f69"/></svg>