<?xml version="1.0" encoding="UTF-8" standalone="no"?>
<!-- Created with Inkscape (http://www.inkscape.org/) -->

<svg
   xmlns:dc="http://purl.org/dc/elements/1.1/"
   xmlns:cc="http://creativecommons.org/ns#"
   xmlns:rdf="http://www.w3.org/1999/02/22-rdf-syntax-ns#"
   xmlns:svg="http://www.w3.org/2000/svg"
   xmlns="http://www.w3.org/2000/svg"
   xmlns:sodipodi="http://sodipodi.sourceforge.net/DTD/sodipodi-0.dtd"
   xmlns:inkscape="http://www.inkscape.org/namespaces/inkscape"
   id="svg2"
   version="1.1"
   inkscape:version="0.48.4 r9939"
   width="250.36"
   height="75.099998"
   xml:space="preserve"
   sodipodi:docname="bpifrance.svg"><metadata
     id="metadata8"><rdf:RDF><cc:Work
         rdf:about=""><dc:format>image/svg+xml</dc:format><dc:type
           rdf:resource="http://purl.org/dc/dcmitype/StillImage" /><dc:title></dc:title></cc:Work></rdf:RDF></metadata><defs
     id="defs6"><clipPath
       clipPathUnits="userSpaceOnUse"
       id="clipPath16"><path
         d="m 0,595.28 841.89,0 L 841.89,0 0,0 0,595.28 z"
         id="path18"
         inkscape:connector-curvature="0" /></clipPath></defs><sodipodi:namedview
     pagecolor="#ffffff"
     bordercolor="#666666"
     borderopacity="1"
     objecttolerance="10"
     gridtolerance="10"
     guidetolerance="10"
     inkscape:pageopacity="0"
     inkscape:pageshadow="2"
     inkscape:window-width="640"
     inkscape:window-height="480"
     id="namedview4"
     showgrid="false"
     inkscape:zoom="0.63432336"
     inkscape:cx="300.97014"
     inkscape:cy="51.615329"
     inkscape:window-x="0"
     inkscape:window-y="0"
     inkscape:window-maximized="0"
     inkscape:current-layer="g10" /><g
     id="g10"
     inkscape:groupmode="layer"
     inkscape:label="bpifrance"
     transform="matrix(1.25,0,0,-1.25,0,75.099954)"><path
       inkscape:connector-curvature="0"
       id="path22"
       style="fill:#ffd500;fill-opacity:1;fill-rule:nonzero;stroke:none"
       d="m 157.59538,29.448963 7.07412,0.0015 c 0,5.075169 -3.29244,8.887815 -9.08894,8.887815 -8.66213,0 -10.27726,-6.335646 -10.27726,-10.862971 0,-2.665782 1.10541,-11.658252 12.01675,-11.658252 1.89404,0 4.08106,0.18577 6.76757,0.928084 l 0,3.779894 c -4.27426,-1.860009 -10.61144,-1.940867 -11.42079,5.097431 -0.67476,5.882477 0.42016,9.622709 2.47975,9.622709 1.78759,0 2.4488,-2.602067 2.4488,-5.796246" /><path
       inkscape:connector-curvature="0"
       id="path26"
       style="fill:#ffd500;fill-opacity:1;fill-rule:nonzero;stroke:none"
       d="m 177.93651,30.415021 c -0.0376,2.416041 -0.50639,4.83029 -2.26277,4.83029 -1.65991,0 -2.27326,-1.921676 -2.52812,-4.83029 l 4.79089,0 z m 7.46357,-1.117693 0,-2.224897 -12.34376,0 c 0.43372,-8.687971 6.94336,-8.421086 11.51726,-6.54726 l 0,-3.780149 c -2.68676,-0.742058 -4.54651,-0.926294 -6.6097,-0.926294 -10.60427,0 -12.18178,7.897295 -12.18178,11.906203 0,4.639401 2.02863,10.62372 10.14982,10.616812 5.98612,-0.0036 9.46816,-3.790385 9.46816,-9.044415" /><path
       inkscape:connector-curvature="0"
       id="path30"
       style="fill:#ffd500;fill-opacity:1;fill-rule:nonzero;stroke:none"
       d="m 110.08674,19.677714 1.20546,-0.0033 0,7.967918 c -1.74947,-0.1566 -4.25328,-0.931668 -4.25686,-4.398105 0,-3.247913 1.54297,-3.504308 3.0514,-3.566487 m 8.59994,10.802838 0,-14.004181 -11.66516,0.0018 c -4.2914,0.0054 -7.440286,1.763541 -7.429786,6.57336 0.0154,7.807736 9.069226,7.523707 11.700466,7.53036 l 0,0.54247 c 0.004,4.758131 -4.71847,4.296519 -7.54265,3.475137 -0.6026,-0.184235 -1.13995,-0.382288 -1.57725,-0.575223 l 0.004,3.516846 c 2.51763,0.597485 4.21233,0.8004 6.86404,0.8004 6.21692,0 9.64702,-2.930876 9.64702,-7.86096" /><g
       id="g32"
       transform="matrix(0.25588228,0,0,0.25588228,99.703624,38.34164)"><path
         d="m 0,0 -6.158,0 c -23.918,-0.007 -39.498,-12.726 -39.518,-29.713 l 0,-55.737 28.905,0 0,54.849 c 0.02,15.385 10.297,17.383 16.771,17.585 L 0,0"
         style="fill:#ffd500;fill-opacity:1;fill-rule:nonzero;stroke:none"
         id="path34"
         inkscape:connector-curvature="0" /></g><path
       inkscape:connector-curvature="0"
       id="path38"
       style="fill:#ffd500;fill-opacity:1;fill-rule:nonzero;stroke:none"
       d="m 86.584794,46.437168 c -6.45258,0 -11.91157,-0.912732 -11.91157,-8.8067 l 0,-21.154044 7.39474,0 10e-4,17.825271 5.05419,0 0,3.318537 -5.05419,0 0,1.658117 c 0.004,3.936749 3.12228,3.879944 6.09103,3.879944 l -0.002,3.278875 -1.57393,0" /><path
       inkscape:connector-curvature="0"
       id="path42"
       style="fill:#ffd500;fill-opacity:1;fill-rule:nonzero;stroke:none"
       d="m 122.7474,37.620206 0,-21.143809 7.39449,0 0,17.82348 0.39636,0 c 2.56932,-0.01177 4.3912,-0.237459 4.3912,-5.110993 l 0,-12.712487 7.39474,0 0,12.302564 c 0,3.945193 -0.0174,8.839453 -10.4771,8.839453 l -9.09969,0.0018" /><path
       inkscape:connector-curvature="0"
       id="path46"
       style="fill:#ffd500;fill-opacity:1;fill-rule:nonzero;stroke:none"
       d="m 70.674624,8.8202196 c 0,-2.224896 -1.80294,-4.029634 -4.02963,-4.029634 -2.2249,0 -4.02964,1.804738 -4.02964,4.029634 0,2.2248964 1.80474,4.0314254 4.02964,4.0314254 2.22669,0 4.02963,-1.806529 4.02963,-4.0314254" /><path
       d="m 62.947774,16.476551 7.39628,0 0,21.143808 -7.39628,0 0,-21.143808 z"
       style="fill:#7d6f69;fill-opacity:1;fill-rule:nonzero;stroke:none"
       id="path48"
       inkscape:connector-curvature="0" /><path
       inkscape:connector-curvature="0"
       id="path52"
       style="fill:#7d6f69;fill-opacity:1;fill-rule:nonzero;stroke:none"
       d="m 25.948934,19.60901 c 3.0514,0 4.11049,2.896332 4.11049,7.689007 0,4.573896 -1.05909,7.246586 -4.21387,7.246586 l -0.46161,0.0015 0,-14.938919 0.56499,0.0018 z m 2.23513,-3.132511 -10.23938,0 0,29.960744 7.43926,0 0,-8.816935 2.15274,0 c 10.04133,0 10.03621,-7.856098 10.03621,-10.370653 0,-3.314955 -1.05039,-10.773156 -9.38883,-10.773156" /><path
       inkscape:connector-curvature="0"
       id="path56"
       style="fill:#7d6f69;fill-opacity:1;fill-rule:nonzero;stroke:none"
       d="m 48.452964,34.542761 -0.56653,0.0033 0,-14.938919 0.46136,0.0018 c 3.15503,0 4.21745,2.67269 4.21745,7.243004 0,4.79421 -1.06242,7.690797 -4.11228,7.690797 m 2.23359,3.077496 c 8.33998,0 9.38858,-7.458456 9.38858,-10.77162 0,-2.51609 0.005,-10.372188 -10.03596,-10.372188 l -2.15274,0 0,-8.8169364 -7.43773,0 0,29.9607444 10.23785,0" /><g
       id="g58"
       transform="matrix(0.25588228,0,0,0.25588228,70.674624,45.274693)"><path
         d="m 0,0 c 0,-8.688 -7.046,-15.741 -15.748,-15.741 -8.695,0 -15.748,7.053 -15.748,15.741 0,8.695 7.053,15.755 15.748,15.755 C -7.046,15.755 0,8.695 0,0"
         style="fill:#7d6f69;fill-opacity:1;fill-rule:nonzero;stroke:none"
         id="path60"
         inkscape:connector-curvature="0" /></g></g></svg>