<?xml version="1.0" encoding="UTF-8" standalone="no"?>
<!-- Created with Inkscape (http://www.inkscape.org/) -->

<svg
   xmlns:dc="http://purl.org/dc/elements/1.1/"
   xmlns:cc="http://creativecommons.org/ns#"
   xmlns:rdf="http://www.w3.org/1999/02/22-rdf-syntax-ns#"
   xmlns:svg="http://www.w3.org/2000/svg"
   xmlns="http://www.w3.org/2000/svg"
   xmlns:sodipodi="http://sodipodi.sourceforge.net/DTD/sodipodi-0.dtd"
   xmlns:inkscape="http://www.inkscape.org/namespaces/inkscape"
   width="150"
   height="150"
   id="svg9777"
   version="1.1"
   inkscape:version="0.48.4 r9939"
   sodipodi:docname="contact.svg">
  <defs
     id="defs9779" />
  <sodipodi:namedview
     id="base"
     pagecolor="#ffffff"
     bordercolor="#666666"
     borderopacity="1.0"
     inkscape:pageopacity="0.0"
     inkscape:pageshadow="2"
     inkscape:zoom="0.9525"
     inkscape:cx="120.35647"
     inkscape:cy="67.681775"
     inkscape:current-layer="layer1"
     showgrid="true"
     inkscape:document-units="px"
     inkscape:grid-bbox="true"
     inkscape:window-width="1280"
     inkscape:window-height="748"
     inkscape:window-x="0"
     inkscape:window-y="0"
     inkscape:window-maximized="1" />
  <metadata
     id="metadata9782">
    <rdf:RDF>
      <cc:Work
         rdf:about="">
        <dc:format>image/svg+xml</dc:format>
        <dc:type
           rdf:resource="http://purl.org/dc/dcmitype/StillImage" />
        <dc:title></dc:title>
      </cc:Work>
    </rdf:RDF>
  </metadata>
  <g
     id="layer1"
     inkscape:label="Layer 1"
     inkscape:groupmode="layer"
     transform="translate(0,86)">
    <path
       sodipodi:type="arc"
       style="opacity:1;fill:#f8f8f8;fill-opacity:1;stroke:none"
       id="path3159-4"
       sodipodi:cx="479.64285"
       sodipodi:cy="72.005035"
       sodipodi:rx="24.285715"
       sodipodi:ry="24.285715"
       d="m 503.92857,72.005035 a 24.285715,24.285715 0 1 1 -48.57143,0 24.285715,24.285715 0 1 1 48.57143,0 z"
       transform="matrix(3.0652673,0,0,3.0652673,-1394.9608,-231.98741)" />
    <g
       id="g10044"
       transform="matrix(2.6239329,0,0,2.6239329,49.853526,-50.363936)">
      <path
         id="path10030"
         d="m 9,15 v 16 c 0,0.553 0.447,1 1,1 0.553,0 1,-0.447 1,-1 V 15 H 9 z"
         inkscape:connector-curvature="0"
         style="fill:#324d5b" />
      <path
         id="path10032"
         d="M 10,0 C 15.523,0 20,4.478 20,10 20,15.522 15.523,20.001 10,20.001 4.478,20.002 0,15.522 0,10 0,4.478 4.478,0 10,0 z"
         inkscape:connector-curvature="0"
         style="fill:#e2574c" />
      <path
         id="path10034"
         d="m 13,5.001 c 1.657,0 3,1.342 3,2.999 0,1.657 -1.343,3 -3,3 -1.656,0 -3,-1.343 -3,-3 0,-1.656 1.344,-2.999 3,-2.999 z"
         inkscape:connector-curvature="0"
         style="fill:#e87970" />
      <path
         id="path10036"
         d="M 11,19.002 C 5.479,19.002 1,14.522 1,9 1,6.493 1.929,4.208 3.453,2.453 1.341,4.288 0,6.985 0,10 c 0,5.522 4.478,10.001 10,10.001 3.016,0 5.713,-1.342 7.547,-3.453 -1.755,1.526 -4.04,2.454 -6.547,2.454 z"
         inkscape:connector-curvature="0"
         style="fill:#cb4e44" />
    </g>
  </g>
</svg>
