<?xml version="1.0" encoding="UTF-8" standalone="no"?>
<!-- Created with Inkscape (http://www.inkscape.org/) -->

<svg
   xmlns:dc="http://purl.org/dc/elements/1.1/"
   xmlns:cc="http://creativecommons.org/ns#"
   xmlns:rdf="http://www.w3.org/1999/02/22-rdf-syntax-ns#"
   xmlns:svg="http://www.w3.org/2000/svg"
   xmlns="http://www.w3.org/2000/svg"
   xmlns:sodipodi="http://sodipodi.sourceforge.net/DTD/sodipodi-0.dtd"
   xmlns:inkscape="http://www.inkscape.org/namespaces/inkscape"
   width="150"
   height="150"
   id="svg9777"
   version="1.1"
   inkscape:version="0.48.4 r9939"
   sodipodi:docname="favicon.png"
   inkscape:export-filename="/home/poupi/Desktop/work/derock/app/src/assets/favicon.png"
   inkscape:export-xdpi="300.93921"
   inkscape:export-ydpi="300.93921">
  <defs
     id="defs9779" />
  <sodipodi:namedview
     id="base"
     pagecolor="#ffffff"
     bordercolor="#666666"
     borderopacity="1.0"
     inkscape:pageopacity="0.0"
     inkscape:pageshadow="2"
     inkscape:zoom="1.3470384"
     inkscape:cx="56.068378"
     inkscape:cy="52.772808"
     inkscape:current-layer="layer1"
     showgrid="true"
     inkscape:document-units="px"
     inkscape:grid-bbox="true"
     inkscape:window-width="1280"
     inkscape:window-height="748"
     inkscape:window-x="0"
     inkscape:window-y="0"
     inkscape:window-maximized="1" />
  <metadata
     id="metadata9782">
    <rdf:RDF>
      <cc:Work
         rdf:about="">
        <dc:format>image/svg+xml</dc:format>
        <dc:type
           rdf:resource="http://purl.org/dc/dcmitype/StillImage" />
        <dc:title></dc:title>
      </cc:Work>
    </rdf:RDF>
  </metadata>
  <g
     id="layer1"
     inkscape:label="Layer 1"
     inkscape:groupmode="layer"
     transform="translate(0,86)">
    <g
       id="g6192"
       transform="matrix(1.8996279,0,0,1.8996279,-525.03439,-67.467432)">
      <path
         inkscape:connector-curvature="0"
         id="path11546-5"
         d="m 281.59155,11.106191 0,48.28125 c -10e-4,0.0199 0,0.0425 0,0.0625 0,1.51152 3.83705,2.75 8.5625,2.75 4.72545,0 8.5625,-1.23848 8.5625,-2.75 0,-0.0207 0.001,-0.0419 0,-0.0625 l 0,-48.28125 -17.125,0 z"
         style="opacity:0.98999999;fill:#238ab4;fill-opacity:1;stroke:none" />
      <path
         transform="matrix(1.0647702,0,0,1.0569924,-38.200538,-270.265)"
         d="m 316.42857,266.29074 c 0,1.43002 -3.59771,2.58929 -8.03572,2.58929 -4.438,0 -8.03571,-1.15927 -8.03571,-2.58929 0,-1.43002 3.59771,-2.58928 8.03571,-2.58928 4.43801,0 8.03572,1.15926 8.03572,2.58928 z"
         sodipodi:ry="2.5892856"
         sodipodi:rx="8.0357141"
         sodipodi:cy="266.29074"
         sodipodi:cx="308.39285"
         id="path11546-5-9"
         style="opacity:0.98999999;fill:#2ca5d5;fill-opacity:1;stroke:none"
         sodipodi:type="arc" />
      <path
         sodipodi:nodetypes="ccsssccc"
         inkscape:connector-curvature="0"
         id="path11546-5-5"
         d="m 308.27596,21.710631 0,38.09375 c -10e-4,0.0199 0,0.0425 0,0.0625 0,1.51152 3.83705,2.75 8.5625,2.75 4.72545,0 8.5625,-1.23848 8.5625,-2.75 0,-0.0207 10e-4,-0.0419 0,-0.0625 l 0,-38.09375 z"
         style="opacity:0.98999999;fill:#3a9785;fill-opacity:1;stroke:none" />
      <path
         transform="matrix(1.0647702,0,0,1.0569924,-11.516128,-259.66056)"
         d="m 316.42857,266.29074 c 0,1.43002 -3.59771,2.58929 -8.03572,2.58929 -4.438,0 -8.03571,-1.15927 -8.03571,-2.58929 0,-1.43002 3.59771,-2.58928 8.03571,-2.58928 4.43801,0 8.03572,1.15926 8.03572,2.58928 z"
         sodipodi:ry="2.5892856"
         sodipodi:rx="8.0357141"
         sodipodi:cy="266.29074"
         sodipodi:cx="308.39285"
         id="path11546-5-9-2"
         style="opacity:0.98999999;fill:#45b39c;fill-opacity:1;stroke:none"
         sodipodi:type="arc" />
      <path
         sodipodi:nodetypes="ccsssccc"
         inkscape:connector-curvature="0"
         id="path11546-5-1"
         d="m 333.77596,1.2106309 0,58.2812501 c -10e-4,0.0199 0,0.0425 0,0.0625 0,1.51152 3.83705,2.75 8.5625,2.75 4.72545,0 8.5625,-1.23848 8.5625,-2.75 0,-0.0207 10e-4,-0.0419 0,-0.0625 l 0,-58.2812501 z"
         style="opacity:0.98999999;fill:#bd3e25;fill-opacity:1;stroke:none" />
      <path
         transform="matrix(1.0647702,0,0,1.0569924,13.983862,-280.16056)"
         d="m 316.42857,266.29074 c 0,1.43002 -3.59771,2.58929 -8.03572,2.58929 -4.438,0 -8.03571,-1.15927 -8.03571,-2.58929 0,-1.43002 3.59771,-2.58928 8.03571,-2.58928 4.43801,0 8.03572,1.15926 8.03572,2.58928 z"
         sodipodi:ry="2.5892856"
         sodipodi:rx="8.0357141"
         sodipodi:cy="266.29074"
         sodipodi:cx="308.39285"
         id="path11546-5-9-7"
         style="opacity:0.98999999;fill:#df5a48;fill-opacity:1;stroke:none"
         sodipodi:type="arc" />
    </g>
  </g>
</svg>
