<svg xmlns="http://www.w3.org/2000/svg" width="150" height="150"><path d="M147.906 57.648c-.66-1.918-1.7-3.728-3.232-5.26L84.664 6.88c-7.825-5.766-11.813-5.766-19.507 0l-59.75 45.51c-1.53 1.532-2.575 3.342-3.235 5.26l72.74 63.81 72.994-63.81z" fill="#d07c40"/><path d="M20.285 16.632h109.39v91.153H20.284V16.632z" fill="#e4e7e7"/><path d="M9.564 142.717l65.33-50.89 65.496 50.894c2.42-1.234 4.407-3.148 5.733-5.518L84.665 88.93c-7.758-5.725-11.837-5.817-19.508 0L3.794 137.123c1.322 2.398 3.318 4.344 5.77 5.593z" fill="#e8ab54"/><path d="M38.516 39.42v9.117h72.926V39.42H38.516zm0 27.344h72.926v-9.11H38.516v9.11z" fill="#c2c5c5"/><path d="M74.98 112.343l72.926-54.695v77.485c0 7.552-6.122 13.673-13.674 13.673H15.727c-7.553 0-13.674-6.12-13.674-13.673V57.648l72.926 54.695z" fill="#e8ab54"/><path d="M135.69 148.656c2.954-.315 5.625-1.55 7.708-3.446L74.893 91.824 6.547 145.21c2.088 1.9 4.754 3.13 7.717 3.45l121.426-.004z" fill="#f4b459"/><path d="M3.794 141.682c1.322 2.398 3.323 4.344 5.77 5.597l65.33-50.885 65.496 50.89c2.42-1.236 4.407-3.15 5.733-5.52L84.665 93.477c-8.61-6.376-10.698-6.668-19.508 0L3.794 141.682z" fill="#f9d7a7"/></svg>