<svg xmlns="http://www.w3.org/2000/svg" width="150" height="150"><path d="M74.935 1.795c40.697 0 73.688 32.992 73.688 73.688 0 40.697-32.99 73.69-73.688 73.69-40.697 0-73.688-32.993-73.688-73.69 0-40.696 32.99-73.688 73.688-73.688z" fill="#334d5c"/><path d="M122.9 97.69l1.523-3.68-.332 3.968 3.682 1.522-3.97-.33-1.52 3.68.33-3.97-3.68-1.522 3.97.33M81.895 28.086l.474-2.876.42 2.883 2.877.474-2.884.423-.474 2.875-.423-2.883-2.876-.474 2.885-.422M14.445 61.197l.648-3.93.577 3.94 3.93.65-3.94.576-.648 3.93-.577-3.94-3.93-.65 3.94-.576" fill="#fff"/><path d="M62.1 53.513l-2.79-.06c-9.305-.193-18.287 3.414-24.877 9.974-6.21 6.19-10.682 13.907-12.962 22.365l-2.556 9.48c-.295 1.09.877 2.003 1.866 1.458l26.922-15.05 14.4-28.167M97.664 80.776l.78 2.682c2.602 8.927 1.454 18.542-3.176 26.61-4.363 7.61-10.648 13.928-18.224 18.323l-8.49 4.932c-.982.568-2.168-.326-1.89-1.423l7.536-29.905 23.464-21.22" fill="#a72e2e"/><path d="M47.7 81.678c22.625-60.33 62.18-71.393 74.112-73.374 1.975-.33 3.807 1.075 4.002 3.07 1.18 12.035.772 53.106-51.61 90.622L47.7 81.678" fill="#d7524b"/><path d="M121.777 8.315c-4.37.72-12.418 2.674-21.97 7.785L124 34.647c2.454-10.55 2.245-18.828 1.816-23.24-.195-2.017-2.04-3.437-4.04-3.092" fill="#a72e2e"/><path d="M109.377 50.33c-4.277 5.58-12.27 6.64-17.85 2.354-5.58-4.274-6.638-12.266-2.358-17.854 4.278-5.578 12.27-6.637 17.85-2.353 5.582 4.275 6.638 12.266 2.357 17.854" fill="#3f4143"/><path d="M106.62 48.214c-3.11 4.057-8.92 4.826-12.98 1.717-4.057-3.11-4.822-8.926-1.712-12.983 3.11-4.057 8.922-4.825 12.978-1.716 4.058 3.11 4.823 8.927 1.713 12.984" fill="#99b2a0"/><path d="M74.203 101.996c2.01-1.445 3.942-2.892 5.8-4.328L50.375 74.955c-.916 2.173-1.81 4.407-2.676 6.723l26.503 20.318" fill="#3f4143"/><path d="M49.585 83.133s-11.85 3.597-19.878 18.755c-4.174 7.885-5.75 18.17-6.328 26.235 3.677 3.57 7.723 6.746 12.08 9.492 7.673-2.647 17.285-6.868 23.876-13.002 12.558-11.695 12.974-24.077 12.974-24.077L49.585 83.133z" fill="#cf8c2c"/><path d="M33.623 127.487s17.108-3.492 26.203-11.962c9.095-8.47 9.388-17.426 9.388-17.426L52.762 85.48s-8.578 2.61-14.39 13.588c-5.817 10.987-4.75 28.42-4.75 28.42" fill="#deae2a"/><path d="M45.258 116.464l-4.016-3.076c-.456-.348-.54-1.005-.19-1.46l35.642-46.492c.352-.464 1.002-.54 1.457-.193l4.018 3.076c.456.347.54 1.003.19 1.458L46.716 116.27c-.35.455-1 .542-1.457.194" fill="#a72e2e"/><path d="M135.252 61.92l.23-1.4.206 1.404 1.4.23-1.403.206-.23 1.4-.207-1.404-1.4-.23 1.404-.206M49.008 28.4l.23-1.4.207 1.403 1.4.23-1.404.206-.23 1.398-.205-1.403-1.4-.23 1.403-.206M87.34 135.658l.23-1.4.206 1.403 1.4.232-1.404.206-.23 1.4-.207-1.404-1.4-.23 1.404-.206" fill="#fff"/></svg>