<svg xmlns="http://www.w3.org/2000/svg" width="150" height="150"><path d="M149.715 74.727a74.442 74.442 0 1 1-148.884 0 74.442 74.442 0 1 1 148.885 0z" fill="#f8f8f8"/><path d="M73.47 74.995v41.983c0 1.45 1.172 2.624 2.623 2.624 1.45 0 2.624-1.173 2.624-2.624V74.995H73.47z" fill="#324d5b"/><path d="M76.093 35.636c14.492 0 26.24 11.75 26.24 26.24 0 14.49-11.748 26.24-26.24 26.24-14.49.004-26.24-11.75-26.24-26.24 0-14.49 11.75-26.24 26.24-26.24z" fill="#e2574c"/><path d="M83.965 48.758c4.348 0 7.87 3.522 7.87 7.87 0 4.347-3.522 7.87-7.87 7.87-4.346 0-7.872-3.523-7.872-7.87 0-4.346 3.526-7.87 7.872-7.87z" fill="#e87970"/><path d="M78.717 85.496c-14.487 0-26.24-11.755-26.24-26.245 0-6.577 2.438-12.572 6.437-17.177-5.542 4.814-9.06 11.89-9.06 19.802 0 14.49 11.75 26.242 26.24 26.242 7.913 0 14.99-3.52 19.802-9.06-4.605 4.004-10.6 6.44-17.18 6.44z" fill="#cb4e44"/></svg>