<svg xmlns="http://www.w3.org/2000/svg" width="1024" height="768"><path d="M964.75 499.268l1.19-7.21 1.06 7.23 7.208 1.188-7.23 1.06-1.187 7.207-1.058-7.228-7.21-1.188 7.23-1.06M650.966 331.916l1.19-7.21 1.058 7.23 7.21 1.188-7.23 1.06-1.188 7.207-1.06-7.227-7.208-1.188 7.228-1.06M972.596 754.217l1.188-7.208 1.06 7.228 7.21 1.187-7.23 1.06-1.19 7.208-1.058-7.23-7.21-1.186 7.23-1.06M505.84 269.158l1.19-7.208 1.058 7.228 7.21 1.188-7.23 1.06-1.188 7.208-1.06-7.23-7.208-1.186 7.23-1.06M358.1 15.515l1.19-7.208 1.058 7.23 7.21 1.186-7.23 1.06-1.188 7.208-1.06-7.228-7.208-1.187 7.23-1.06M416.935 497.96l1.19-7.21 1.058 7.23 7.21 1.187-7.23 1.06-1.188 7.208-1.06-7.23-7.21-1.186 7.23-1.06M43.01 210.323l1.186-7.208 1.06 7.23 7.21 1.186-7.23 1.06-1.188 7.21-1.06-7.23-7.208-1.187 7.23-1.06M231.28 237.78l1.188-7.21 1.06 7.23 7.208 1.187-7.23 1.06-1.188 7.208-1.06-7.23-7.208-1.186 7.23-1.06" fill="#fff"/><path d="M197.746 356.396c0 2.167-1.756 3.923-3.922 3.923-2.167 0-3.923-1.757-3.923-3.924 0-2.166 1.757-3.922 3.924-3.922 2.166 0 3.922 1.756 3.922 3.922M888.073 494.985c0 2.166-1.757 3.922-3.923 3.922-2.165 0-3.922-1.756-3.922-3.922 0-2.167 1.757-3.923 3.922-3.923 2.166 0 3.923 1.756 3.923 3.923M660.58 270.105c0 2.167-1.758 3.923-3.924 3.923-2.165 0-3.922-1.756-3.922-3.923 0-2.166 1.757-3.922 3.922-3.922 2.166 0 3.923 1.756 3.923 3.922M758.637 94.91c0 2.165-1.758 3.92-3.923 3.92s-3.922-1.755-3.922-3.92c0-2.168 1.757-3.924 3.922-3.924s3.923 1.756 3.923 3.923M421.318 323.71c0 2.167-1.757 3.923-3.923 3.923-2.165 0-3.922-1.756-3.922-3.923 0-2.166 1.757-3.922 3.922-3.922 2.166 0 3.923 1.756 3.923 3.922M723.336 598.272c0 2.165-1.757 3.922-3.923 3.922-2.165 0-3.922-1.757-3.922-3.922s1.758-3.922 3.923-3.922c2.166 0 3.923 1.757 3.923 3.922" fill="#3d788f"/></svg>