<svg xmlns="http://www.w3.org/2000/svg" width="150" height="150"><path d="M9.885 39.63v91.717c-.002.037 0 .08 0 .118 0 2.872 7.29 5.224 16.265 5.224 8.977 0 16.266-2.353 16.266-5.225 0-.04.002-.08 0-.118V39.63H9.886z" opacity=".99" fill="#238ab4"/><path d="M42.428 39.813c0 2.87-7.276 5.2-16.253 5.2s-16.254-2.33-16.254-5.2c0-2.872 7.278-5.2 16.255-5.2s16.253 2.328 16.253 5.2z" opacity=".99" fill="#2ca5d5"/><path d="M60.575 59.775v72.364c-.002.036 0 .08 0 .117 0 2.872 7.29 5.224 16.266 5.224 8.977 0 16.266-2.35 16.266-5.223 0-.04.002-.08 0-.118V59.774z" opacity=".99" fill="#3a9785"/><path d="M93.12 59.957c0 2.872-7.278 5.2-16.255 5.2-8.976 0-16.253-2.328-16.253-5.2 0-2.87 7.277-5.2 16.253-5.2 8.977 0 16.254 2.33 16.254 5.2z" opacity=".99" fill="#45b39c"/><path d="M109.016 20.832v110.713c-.002.038 0 .08 0 .12 0 2.87 7.29 5.223 16.265 5.223 8.978 0 16.267-2.353 16.267-5.224 0-.04.002-.08 0-.12V20.833z" opacity=".99" fill="#bd3e25"/><path d="M141.56 21.015c0 2.87-7.278 5.2-16.254 5.2-8.977 0-16.254-2.33-16.254-5.2s7.277-5.2 16.254-5.2c8.976 0 16.253 2.33 16.253 5.2z" opacity=".99" fill="#df5a48"/></svg>